PathFileType	4	(X/Y/Z)	TVC_16_BWA5_walk_RCNL2025.trc
DataRate	CameraRate	NumFrames	NumMarkers	Units	OrigDataRate	OrigDataStartFrame	OrigNumFrames
100	100	5	27	mm	100	336	671
Frame#	Time	R_Shoulder			L_Shoulder			C7			J_Notch			R_Elbow			L_Elbow			R_Wrist			L_Wrist			R_Asis			L_Asis			R_Psis			L_Psis			Sacral			Thoracic			Sternum			R_Thigh_Lateral			R_Knee_Lateral			R_Shank_Lateral			R_Ankle_Lateral			R_Heel			R_Toe			L_Thigh_Lateral			L_Knee_Lateral			L_Shank_Lateral			L_Ankle_Lateral			L_Heel			L_Toe		
		X1	Y1	Z1	X2	Y2	Z2	X3	Y3	Z3	X4	Y4	Z4	X5	Y5	Z5	X6	Y6	Z6	X7	Y7	Z7	X8	Y8	Z8	X9	Y9	Z9	X10	Y10	Z10	X11	Y11	Z11	X12	Y12	Z12	X13	Y13	Z13	X14	Y14	Z14	X15	Y15	Z15	X16	Y16	Z16	X17	Y17	Z17	X18	Y18	Z18	X19	Y19	Z19	X20	Y20	Z20	X21	Y21	Z21	X22	Y22	Z22	X23	Y23	Z23	X24	Y24	Z24	X25	Y25	Z25	X26	Y26	Z26	X27	Y27	Z27
336	3.35000000	-58.769306	1293.650635	-46.671738	-81.422852	1299.813232	-373.077393	-127.429459	1352.192749	-199.442749	4.711075	1217.891113	-206.611984	-161.350189	997.000061	31.449123	-71.424843	977.815674	-446.732086	-118.092381	770.810242	67.268549	24.914407	787.476440	-387.455383	-43.889248	862.362976	-91.060600	-97.545532	881.227844	-349.598450	-230.079147	911.598877	-135.766190	-247.500046	915.341003	-241.150772	-238.789597	913.469940	-188.458481	-209.725540	1091.708496	-198.488434	26.301977	1023.812561	-226.653000	-50.662769	593.177063	17.094145	44.702194	442.148499	-69.968819	52.179401	291.732910	-11.462538	66.377274	66.373512	-79.277802	17.743397	49.834980	-128.245331	185.164978	64.161354	-123.853493	-119.489159	584.779663	-420.606110	-84.989418	410.478760	-319.965027	-157.240021	270.113617	-373.531891	-233.090393	60.815750	-284.539612	-278.400635	65.274590	-240.915192	-102.085220	38.774986	-241.043350
337	3.36000000	-54.001305	1292.833618	-45.733795	-78.325897	1299.441895	-372.005615	-123.443527	1351.801270	-198.078033	8.475361	1217.193359	-206.126740	-156.626785	996.224365	32.459789	-68.792320	977.268250	-445.635101	-113.785290	769.909851	67.923502	26.832251	786.806915	-386.828796	-39.719105	861.380066	-90.826065	-94.853233	880.816284	-348.967865	-226.190750	911.198364	-134.178070	-244.246887	915.007812	-239.497452	-235.218819	913.103088	-186.837761	-206.006851	1091.430298	-197.062317	29.725662	1022.990356	-226.688522	-46.545807	592.313232	17.064152	46.344410	440.743805	-70.195396	51.845905	289.517853	-11.422087	67.964828	65.135330	-79.767235	19.504183	48.689301	-128.881546	186.713425	62.205711	-124.045837	-116.970398	584.354248	-420.098938	-82.854774	409.852600	-319.675232	-155.947052	269.883698	-373.217865	-233.037186	60.999840	-284.369507	-278.218811	65.634399	-240.679688	-102.043465	38.756687	-241.074448
338	3.37000000	-49.216606	1292.041748	-44.727497	-75.198563	1299.082397	-370.861694	-119.437637	1351.434082	-196.647980	12.259739	1216.517090	-205.561523	-151.818848	995.448608	33.546963	-66.174644	976.728394	-444.465454	-109.279678	769.027283	68.601938	28.677477	786.134857	-386.191498	-35.613613	860.405945	-90.520576	-92.079117	880.419800	-348.273804	-222.298325	910.822266	-132.585159	-240.945663	914.690735	-237.847092	-231.621994	912.756500	-185.216125	-202.258102	1091.168579	-195.600494	33.177376	1022.189819	-226.633682	-42.364815	591.484741	16.987202	48.129501	439.456024	-70.382980	51.302334	287.360626	-11.365340	68.875664	63.965031	-80.240944	20.552969	47.720116	-129.494308	187.619965	59.995331	-124.207794	-114.463089	583.931946	-419.556458	-80.712196	409.237091	-319.324799	-154.634064	269.669312	-372.881500	-232.978592	61.209969	-284.172241	-278.021179	66.023781	-240.421127	-101.992088	38.736382	-241.102982
339	3.38000000	-44.424313	1291.293335	-43.653198	-72.034698	1298.753540	-369.646210	-115.414436	1351.105347	-195.154861	16.063063	1215.880249	-204.912750	-146.932938	994.690613	34.707954	-63.569321	976.218506	-443.226471	-104.580708	768.180176	69.300470	30.481439	785.484650	-385.528275	-31.571451	859.483643	-90.136223	-89.217163	880.051880	-347.516754	-218.405502	910.488220	-131.000839	-237.594131	914.405762	-236.212051	-227.999817	912.446991	-183.606445	-198.479645	1090.936523	-194.108627	36.657825	1021.431335	-226.481705	-38.203960	590.719116	16.889616	50.063248	438.308899	-70.526871	50.817551	285.372009	-11.303917	69.313972	62.889717	-80.684547	21.085430	46.935349	-130.056885	188.108017	57.644718	-124.344933	-111.984962	583.526489	-418.966461	-78.584801	408.647522	-318.911438	-153.305969	269.482880	-372.509491	-232.913651	61.451904	-283.944061	-277.807556	66.446434	-240.134583	-101.929169	38.713505	-241.128143
340	3.39000000	-39.634262	1290.605835	-42.511604	-68.829163	1298.473755	-368.360107	-111.377258	1350.828735	-193.601227	19.883694	1215.300659	-204.177399	-141.976425	993.967651	35.939568	-60.972603	975.761230	-441.921478	-99.695068	767.385742	70.016047	32.277328	784.880493	-384.821533	-27.589010	858.656006	-89.664528	-86.262695	879.726257	-346.697327	-214.514755	910.212708	-129.436996	-234.190338	914.168091	-234.602844	-224.352547	912.190399	-182.019920	-194.672134	1090.746216	-192.591690	40.167282	1020.735718	-226.226730	-34.140278	590.045471	16.803263	52.147873	437.321350	-70.624733	50.659939	283.653503	-11.248530	69.463066	61.934635	-81.085899	21.279829	46.339588	-130.547806	188.371765	55.274498	-124.461418	-109.540443	583.152405	-418.315582	-76.493843	408.099487	-318.433899	-151.969284	269.338440	-372.087311	-232.841293	61.731995	-283.682159	-277.577698	66.906570	-239.815277	-101.853165	38.687485	-241.149155
